<svg width="16" height="18" viewBox="0 0 14.2 15.7" fill="none" xmlns="http://www.w3.org/2000/svg">
  <path fill-rule="evenodd" clip-rule="evenodd" d="M0.315333 0H2.97737C3.15152 0 3.2927 0.141179 3.2927 0.315333V2.97737C3.2927 3.15152 3.15152 3.2927 2.97737 3.2927H0.315333C0.141179 3.2927 0 3.15152 0 2.97737V0.315333C0 0.141179 0.141179 0 0.315333 0Z" fill="white"/>
  <path fill-rule="evenodd" clip-rule="evenodd" d="M14.1863 2.75138V0.315308C14.1863 0.141258 14.0451 0 13.871 0H8.21438C6.6473 0 5.37661 1.27069 5.37661 2.83777V15.3051C5.37661 15.4791 5.51787 15.6204 5.69192 15.6204H8.49437C8.66842 15.6204 8.80968 15.4791 8.80968 15.3051V3.06669H13.871C14.0451 3.06669 14.1863 2.92543 14.1863 2.75138Z" fill="white"/>
</svg>
